<svg xmlns="http://www.w3.org/2000/svg" viewBox="0 0 674.3 84.3" xml:space="preserve"><path fill="#3F3B38" d="M674.3 15.7v10h-27.9v37.2h-10V25.7h-27.9v-10h65.8zM587.6 49l19.5 14h-16.8l-19.5-14H548v14h-10V25.4c0-5.3 4.3-9.6 9.6-9.6h45.2c5.3 0 9.6 4.3 9.6 9.6v14c0 5.3-4.3 9.6-9.6 9.6h-5.2zM548 25.7V39h44.6V25.7H548zm-17.3-.3.1 27.9c0 5.3-4.3 9.6-9.6 9.6h-46.6c-5.3 0-9.6-4.3-9.6-9.6V25.4c0-5.3 4.3-9.6 9.6-9.6h46.5c5.3-.1 9.6 4.3 9.6 9.6zm-55.8.3V53h45.9V25.7h-45.9zm-235.4-.3.1 27.9c0 5.3-4.3 9.6-9.6 9.6h-46.6c-5.3 0-9.6-4.3-9.6-9.6V25.4c0-5.3 4.3-9.6 9.6-9.6h46.5c5.2-.1 9.6 4.3 9.6 9.6zm-55.9.3V53h45.9V25.7h-45.9zM156.4 53h-21.9V15.7h-10V53h-21.9V15.7h-10v37.6c0 5.3 4.3 9.6 9.6 9.6h54.4c5.3 0 9.6-4.3 9.6-9.6V15.7h-10V53zm138.7-4 19.5 14h-16.8l-19.5-14h-21.6v14h-10V25.4c0-5.3 4.3-9.6 9.6-9.6h44.9c6.6 0 10 4.8 10 9.6v14c0 5.3-4.3 9.6-9.6 9.6h-6.5zm-38.3-23.3V39h44.6V25.7h-44.6zm115.5-10-27.4 18.6h-13.7V15.7h-10v47.2h10V44.3h13.7l27.3 18.6.1.1h16.8l-34.4-23.6 34.4-23.6h-16.8zm86.6 9.7v14c0 5.3-4.3 9.6-9.6 9.6H403v14h-10V25.4c0-5.3 4.3-9.6 9.6-9.6h46.5c5.4-.1 9.8 4.3 9.8 9.6zm-55.9.3V39h45.9V25.7H403z"/><linearGradient id="a" gradientUnits="userSpaceOnUse" x1="62.702" y1="62.702" x2="34.719" y2="34.719"><stop offset="0" style="stop-color:#056a37"/><stop offset=".327" style="stop-color:#00863e"/><stop offset=".7" style="stop-color:#418a38"/><stop offset="1" style="stop-color:#7dad2a"/></linearGradient><path fill="url(#a)" d="M34.7 34.7c.2 10.1 2.1 22.9 10.1 31.5 6.6 7 17.4 1.5 15.7-5.7 7.2 1.7 12.7-9.1 5.7-15.7-8.5-8-21.4-9.9-31.5-10.1z"/><linearGradient id="b" gradientUnits="userSpaceOnUse" x1="34.719" y1="34.719" x2="6.736" y2="6.736"><stop offset="0" style="stop-color:#056a37"/><stop offset=".327" style="stop-color:#00863e"/><stop offset=".7" style="stop-color:#418a38"/><stop offset="1" style="stop-color:#7dad2a"/></linearGradient><path fill="url(#b)" d="M34.7 34.7c-.2-10.1-2.1-22.9-10.1-31.5C18-3.8 7.2 1.7 8.9 8.9 1.7 7.2-3.8 18 3.3 24.6c8.5 8.1 21.3 10 31.4 10.1z"/><linearGradient id="c" gradientUnits="userSpaceOnUse" x1="31.418" y1="59.401" x2="10.037" y2="38.02"><stop offset="0" style="stop-color:#056a37"/><stop offset=".327" style="stop-color:#00863e"/><stop offset=".7" style="stop-color:#418a38"/><stop offset="1" style="stop-color:#7dad2a"/></linearGradient><path fill="url(#c)" d="M34.7 34.7c-10.1.2-22.9 2.1-31.5 10.1-7 6.6-1.5 17.4 5.7 15.7-1.7 7.2 9.1 12.7 15.7 5.7 8.1-8.5 10-21.4 10.1-31.5z"/><linearGradient id="d" gradientUnits="userSpaceOnUse" x1="59.401" y1="31.418" x2="38.02" y2="10.037"><stop offset="0" style="stop-color:#056a37"/><stop offset=".327" style="stop-color:#00863e"/><stop offset=".7" style="stop-color:#418a38"/><stop offset="1" style="stop-color:#7dad2a"/></linearGradient><path fill="url(#d)" d="M34.7 34.7c10.1-.2 22.9-2.1 31.5-10.1 7-6.6 1.5-17.4-5.7-15.7 1.7-7.2-9.1-12.7-15.7-5.7-8 8.6-9.9 21.4-10.1 31.5z"/><linearGradient id="e" gradientUnits="userSpaceOnUse" x1="50.604" y1="79.549" x2="28.248" y2="57.193"><stop offset="0" style="stop-color:#056a37"/><stop offset=".327" style="stop-color:#00863e"/><stop offset=".7" style="stop-color:#418a38"/><stop offset="1" style="stop-color:#7dad2a"/></linearGradient><path fill="url(#e)" d="M33.5 51.9c-4.4 7.9-6.1 23.9 12.3 32.4l3.9-9.2c-13.5-3.4-15.4-13.7-13.4-22.2l-2.8-1z"/><g opacity=".1" fill="#FFF"><path d="M60.5 8.9c1.7-7.2-9.1-12.7-15.7-5.7-8 8.5-9.9 21.4-10.1 31.5 9.7-9.7 20.5-17.7 32-23.9-1.6-1.6-3.8-2.4-6.2-1.9z"/><path d="M8.9 8.9C1.7 7.2-3.8 18 3.3 24.6c8.5 8 21.4 9.9 31.5 10.1-.2-10.1-2.1-22.9-10.1-31.5C18-3.8 7.2 1.7 8.9 8.9zM8.9 60.5c-.6 2.4.3 4.6 1.8 6.2 6.3-11.5 14.3-22.3 24-32-10.1.2-22.9 2.1-31.5 10.1-7 6.6-1.5 17.4 5.7 15.7z"/></g></svg>