<svg width="300" height="61" viewBox="0 0 300 61" fill="none" xmlns="http://www.w3.org/2000/svg">
<rect y="0.879883" width="300" height="60" rx="4" fill="white"/>
<rect y="0.879883" width="300" height="60" rx="4" fill="#F86608"/>
<path d="M31.434 25.2399H36.908V26.2339H31.434V25.2399ZM30.832 29.2579H37.412V30.2519H30.832V29.2579ZM32.834 29.7759L33.968 29.9999C33.576 31.9459 33.002 34.4099 32.498 35.9359L31.546 35.7119C32.036 34.1579 32.568 31.5959 32.834 29.7759ZM30.482 35.5439C32.008 35.4459 34.416 35.2779 36.754 35.0959V36.0479C34.57 36.2579 32.288 36.4399 30.664 36.5799L30.482 35.5439ZM34.85 32.5619L35.76 32.1979C36.544 33.5839 37.244 35.3899 37.524 36.6079L36.544 36.9999C36.306 35.7959 35.606 33.9479 34.85 32.5619ZM24.756 25.6319H30.748V26.5699H24.756V25.6319ZM24.56 33.6259H30.916V34.5639H24.56V33.6259ZM27.276 24.1339H28.27V27.9979H27.276V24.1339ZM27.36 27.9839H28.172V32.0579H28.256V36.9999H27.276V32.0579H27.36V27.9839ZM25.932 30.4339V31.7219H29.656V30.4339H25.932ZM25.932 28.4179V29.6779H29.656V28.4179H25.932ZM25.092 27.6339H30.538V32.5059H25.092V27.6339ZM44.132 32.2959H46.974V33.0519H44.132V32.2959ZM43.348 25.5199H47.758V26.3459H43.348V25.5199ZM42.942 28.5859H51.454V29.4539H42.942V28.5859ZM44.314 30.2939H47.45V35.0959H44.314V34.3119H46.596V31.0779H44.314V30.2939ZM43.698 30.2939H44.538V35.9779H43.698V30.2939ZM45.042 24.1479H45.966V26.1079H45.042V24.1479ZM50.18 30.1679L51.062 30.3499C50.278 33.3039 48.808 35.5579 46.75 36.9999C46.624 36.8319 46.302 36.4679 46.092 36.2999C48.136 35.0259 49.494 32.8839 50.18 30.1679ZM43.768 26.5979L44.496 26.4299C44.762 27.0459 44.944 27.8579 44.972 28.4039L44.202 28.5859C44.188 28.0539 44.006 27.2279 43.768 26.5979ZM49.256 25.0299L49.984 24.6519C50.6 25.3379 51.202 26.2899 51.468 26.9339L50.698 27.3539C50.446 26.7099 49.844 25.7299 49.256 25.0299ZM46.442 26.4019L47.296 26.5979C47.072 27.2699 46.848 28.0539 46.652 28.5579L45.952 28.3899C46.134 27.8299 46.358 26.9759 46.442 26.4019ZM38.7 24.7359H43.376V25.6739H38.7V24.7359ZM39.792 27.6759H42.312V28.5579H39.792V27.6759ZM39.792 30.5599H42.312V31.4559H39.792V30.5599ZM39.358 25.2119H40.24V34.1719H39.358V25.2119ZM41.78 25.1979H42.69V37.0139H41.78V25.1979ZM38.462 34.0319C39.428 33.8639 40.828 33.5839 42.256 33.2899L42.326 34.2139C41.01 34.4939 39.694 34.7879 38.644 35.0119L38.462 34.0319ZM48.08 24.1479H49.032C49.032 30.3919 49.48 35.7259 50.39 35.7679C50.6 35.7679 50.768 34.9839 50.852 33.6679C51.02 33.8779 51.398 34.1299 51.566 34.2139C51.3 36.4119 50.796 36.9859 50.348 36.9719C48.514 36.9439 48.192 31.3579 48.08 24.1479ZM59.14 28.2919H64.432V29.2579H59.14V28.2919ZM59.154 31.6799H64.446V32.6459H59.154V31.6799ZM59.14 35.0819H64.446V36.0479H59.14V35.0819ZM58.622 24.9459H64.95V36.8739H63.9V25.9539H59.63V36.9159H58.622V24.9459ZM52.714 27.1299H58.006V28.1379H52.714V27.1299ZM54.996 24.1199H56.004V36.9859H54.996V24.1199ZM54.94 27.7459L55.64 27.9839C55.136 30.2519 54.058 32.9819 52.952 34.3959C52.84 34.1019 52.574 33.6819 52.392 33.4439C53.442 32.1839 54.506 29.7759 54.94 27.7459ZM55.906 29.2859C56.312 29.6779 57.754 31.3579 58.09 31.7499L57.432 32.6179C57.04 31.9319 55.864 30.3639 55.374 29.7899L55.906 29.2859ZM74.89 27.6899L75.548 27.0039C76.836 27.7459 78.53 28.8519 79.398 29.5939L78.698 30.3919C77.886 29.6359 76.192 28.4879 74.89 27.6899ZM75.632 29.9439H76.15V31.9599C76.15 32.7579 76.626 35.0399 79.552 36.1179C79.356 36.3699 79.062 36.7759 78.922 37.0139C76.766 36.1739 75.828 34.3399 75.618 33.4999C75.408 34.3539 74.414 36.1179 71.936 37.0139C71.824 36.7899 71.53 36.3839 71.334 36.1739C74.596 35.0399 75.1 32.7719 75.1 31.9599V29.9439H75.632ZM75.184 24.1339H76.22C76.052 27.4939 75.52 29.4399 72.356 30.5039C72.258 30.2519 71.992 29.8739 71.768 29.6639C74.652 28.7959 75.058 27.1159 75.184 24.1339ZM73.112 25.0579L73.994 25.2539C73.854 26.1779 73.476 27.1999 72.818 27.7739L72.006 27.3819C72.58 26.8919 72.986 25.9679 73.112 25.0579ZM72.972 31.0919L73.896 31.2739C73.714 32.3379 73.266 33.4299 72.496 34.0459L71.656 33.5419C72.342 33.0519 72.79 32.0859 72.972 31.0919ZM78.11 24.9879L79.118 25.3519C78.67 26.1359 78.138 27.0179 77.718 27.5919L76.934 27.2699C77.34 26.6679 77.858 25.6739 78.11 24.9879ZM78.264 30.9939L79.286 31.3579C78.81 32.1839 78.236 33.1639 77.76 33.7799L76.962 33.4439C77.396 32.7999 77.956 31.7359 78.264 30.9939ZM67.19 28.3619H71.292V29.2019H67.19V28.3619ZM67.232 24.6239H71.236V25.4639H67.232V24.6239ZM67.19 30.2379H71.292V31.0779H67.19V30.2379ZM66.532 26.4579H71.754V27.3259H66.532V26.4579ZM67.652 32.1279H71.292V36.2159H67.652V35.3339H70.368V32.9959H67.652V32.1279ZM67.176 32.1279H68.086V36.8599H67.176V32.1279ZM90.08 29.4539C90.08 33.1779 89.268 35.0959 86.076 36.5379L85.138 35.6419C87.686 34.6759 88.946 33.4719 88.946 29.5379V26.1359C88.946 25.5899 88.904 25.1279 88.876 25.0019H90.15C90.136 25.1419 90.08 25.5899 90.08 26.1359V29.4539ZM85.026 25.0859C85.012 25.2119 84.97 25.6179 84.97 26.0939V31.2319C84.97 31.7499 85.012 32.3659 85.026 32.4919H83.78C83.794 32.3659 83.85 31.7639 83.85 31.2319V26.0939C83.85 25.7999 83.822 25.4079 83.78 25.0859H85.026ZM80.938 27.8019C81.064 27.8159 81.75 27.8999 82.338 27.8999H91.606C92.236 27.8999 92.698 27.8439 92.894 27.8159V29.0059C92.74 28.9919 92.236 28.9639 91.62 28.9639H82.338C81.722 28.9639 81.092 29.0059 80.938 29.0059V27.8019ZM95.414 29.8179C95.848 29.8599 96.576 29.9019 97.374 29.9019C98.396 29.9019 104.01 29.9019 105.046 29.9019C105.746 29.9019 106.236 29.8459 106.558 29.8179V31.1899C106.264 31.1759 105.676 31.1339 105.06 31.1339C103.996 31.1339 98.41 31.1339 97.374 31.1339C96.604 31.1339 95.862 31.1619 95.414 31.1899V29.8179ZM118.192 24.9179C118.542 25.4219 119.046 26.2619 119.326 26.8359L118.57 27.1719C118.29 26.6119 117.828 25.7719 117.45 25.2399L118.192 24.9179ZM119.718 24.3579C120.096 24.8759 120.628 25.7439 120.894 26.2619L120.138 26.5979C119.844 25.9959 119.382 25.1979 118.99 24.6799L119.718 24.3579ZM111.906 25.3799C111.864 25.7159 111.822 26.1219 111.822 26.5139C111.822 27.2699 111.822 32.8979 111.822 33.9059C111.822 34.6339 112.13 34.8159 112.802 34.9419C113.25 35.0259 113.964 35.0539 114.65 35.0539C116.134 35.0539 118.276 34.9139 119.452 34.6059V35.8939C118.234 36.0759 116.134 36.1739 114.608 36.1739C113.768 36.1739 112.942 36.1459 112.354 36.0479C111.29 35.8519 110.688 35.3619 110.688 34.2139C110.688 32.8699 110.688 27.2699 110.688 26.5139C110.688 26.1779 110.66 25.7159 110.604 25.3799H111.906ZM111.304 29.8039C112.998 29.4399 115.532 28.6699 117.156 27.9839C117.576 27.7879 117.982 27.5919 118.388 27.3399L118.878 28.4599C118.472 28.6279 117.968 28.8519 117.548 29.0199C115.812 29.7199 113.04 30.5319 111.318 30.9659L111.304 29.8039ZM133.186 26.5279C133.102 26.6399 132.92 26.9479 132.85 27.1299C132.29 28.5159 131.226 30.4759 130.064 31.7639C128.496 33.5139 126.494 35.1799 124.282 36.1879L123.386 35.2499C125.654 34.3819 127.712 32.7019 129.154 31.1059C130.106 30.0279 131.128 28.3619 131.492 27.1999C130.988 27.1999 126.508 27.1999 126.032 27.1999C125.528 27.1999 124.772 27.2559 124.618 27.2699V26.0099C124.8 26.0379 125.598 26.0939 126.032 26.0939C126.578 26.0939 130.904 26.0939 131.436 26.0939C131.884 26.0939 132.262 26.0519 132.486 25.9819L133.186 26.5279ZM130.246 31.0359C131.758 32.2959 133.62 34.2559 134.572 35.4179L133.606 36.2719C132.598 34.9419 130.96 33.1499 129.448 31.8199L130.246 31.0359ZM142.37 26.4299C143.896 26.6959 146.738 26.6399 148.124 26.4299V27.5639C146.626 27.7319 143.91 27.7319 142.384 27.5639L142.37 26.4299ZM142.916 32.1419C142.79 32.6459 142.72 33.0379 142.72 33.4159C142.72 34.0599 143.168 34.6899 145.086 34.6899C146.332 34.6899 147.424 34.5779 148.544 34.3119L148.572 35.4879C147.704 35.6699 146.528 35.7819 145.072 35.7819C142.734 35.7819 141.684 34.9979 141.684 33.6819C141.684 33.2199 141.754 32.7159 141.908 32.0439L142.916 32.1419ZM139.71 25.3519C139.626 25.5899 139.514 26.0379 139.458 26.2899C139.192 27.5919 138.758 30.0839 138.758 31.6659C138.758 32.3379 138.8 32.9259 138.884 33.6119C139.122 32.9819 139.444 32.1419 139.682 31.5679L140.27 32.0299C139.92 33.0239 139.402 34.4939 139.276 35.1659C139.234 35.3619 139.206 35.6279 139.206 35.7959C139.22 35.9359 139.234 36.1319 139.248 36.2859L138.254 36.3559C137.974 35.3619 137.736 33.7519 137.736 31.8479C137.736 29.7899 138.198 27.3959 138.366 26.2339C138.408 25.9119 138.45 25.5619 138.464 25.2539L139.71 25.3519ZM151.554 25.9819H162.502V33.8779H161.424V26.9899H152.59V33.9619H151.554V25.9819ZM152.226 29.0339H161.998V29.9999H152.226V29.0339ZM152.24 32.1419H161.984V33.1499H152.24V32.1419ZM156.412 24.1199H157.49V36.9859H156.412V24.1199ZM168.76 24.9739C168.69 25.4359 168.648 25.9259 168.62 26.3879C168.564 27.9699 168.452 31.2879 168.452 33.3739C168.452 34.9139 169.418 35.4459 170.748 35.4459C173.31 35.4459 174.766 34.0179 175.774 32.5619L176.558 33.5139C175.606 34.8439 173.786 36.5939 170.72 36.5939C168.704 36.5939 167.318 35.7679 167.318 33.4719C167.318 31.3999 167.458 27.8579 167.458 26.3879C167.458 25.8699 167.416 25.3799 167.332 24.9739H168.76ZM183.67 24.8339H186.596V25.8279H183.67V24.8339ZM185.952 24.8339H187.114C187.45 29.1319 188.528 32.4639 191.356 33.9199C191.104 34.0879 190.726 34.4659 190.516 34.7039C187.674 33.0659 186.568 29.6779 186.19 25.3519H185.952V24.8339ZM186.008 27.5499L187.086 27.7039C186.428 30.8819 185.126 33.2339 183.04 34.7179C182.872 34.5219 182.452 34.1159 182.214 33.9339C184.272 32.6319 185.462 30.4199 186.008 27.5499ZM181.654 29.6499V34.6059H180.632V30.6299H178.672V29.6499H181.654ZM181.654 34.1439C182.312 35.1799 183.558 35.6559 185.168 35.7259C186.694 35.7819 189.844 35.7399 191.496 35.6279C191.384 35.8799 191.202 36.3839 191.16 36.7059C189.62 36.7619 186.722 36.7899 185.168 36.7339C183.348 36.6639 182.088 36.1739 181.192 35.0679C180.52 35.6699 179.806 36.2719 179.05 36.8879L178.49 35.8099C179.162 35.3619 179.988 34.7459 180.702 34.1439H181.654ZM178.826 25.0999L179.596 24.4699C180.52 25.0579 181.57 25.9679 182.06 26.6539L181.234 27.3399C180.786 26.6679 179.736 25.7159 178.826 25.0999ZM197.208 24.7919C197.152 25.0859 197.11 25.6039 197.11 26.1079C197.096 26.8079 197.11 29.4399 197.11 30.3919L196.088 29.8319C196.088 29.0619 196.088 26.8499 196.074 26.1079C196.074 25.5619 196.046 25.0859 195.976 24.7919H197.208ZM202.108 26.2059C202.934 26.7519 204.264 27.9979 204.908 28.7819L204.124 29.5799C203.438 28.6979 202.164 27.4799 201.38 26.9339L202.108 26.2059ZM193.288 26.6399C194.114 26.7799 194.8 26.8359 195.5 26.8359C196.83 26.8359 198.384 26.6259 199.798 26.2339V27.3119C198.37 27.6339 196.718 27.8159 195.57 27.8159C194.954 27.8159 194.156 27.7879 193.33 27.6759L193.288 26.6399ZM196.76 32.9539C196.732 33.2479 196.704 33.9339 196.704 34.3539C196.704 35.1379 196.9 35.4319 198.944 35.4319C199.728 35.4319 200.806 35.3339 201.31 35.1939C202.038 34.9699 202.472 34.5499 202.472 33.6259C202.472 33.0799 202.458 32.6039 202.388 32.0439L203.592 32.4219C203.592 32.9819 203.606 33.3459 203.592 33.9339C203.536 35.2499 203.032 35.8519 201.772 36.2019C201.156 36.3559 199.798 36.4819 198.874 36.4819C196.06 36.4819 195.654 35.8099 195.654 34.7739C195.654 34.2699 195.682 33.7659 195.71 33.3179L196.76 32.9539ZM197.474 31.1059C197.474 32.3659 196.984 34.1299 195.22 34.1299C194.422 34.1299 193.414 33.5559 193.414 31.9179C193.414 30.4899 194.324 29.1739 195.71 29.1739C196.83 29.1739 197.474 29.9859 197.474 31.1059ZM195.332 33.0939C196.172 33.0939 196.452 32.0999 196.452 31.1619C196.452 30.4899 196.13 30.0699 195.64 30.0699C194.954 30.0699 194.352 30.8119 194.352 31.8619C194.352 32.6459 194.814 33.0939 195.332 33.0939Z" fill="white"/>
<rect x="226" y="20.8799" width="50" height="20" rx="3" fill="white"/>
<path d="M240.67 24.1199L241.692 24.4139C240.922 25.9959 239.718 27.5079 238.542 28.4879C238.346 28.2919 237.926 27.9559 237.674 27.7879C238.864 26.9059 240.012 25.5339 240.67 24.1199ZM240.18 25.7299H249.826V26.6819H239.83L240.18 25.7299ZM237.842 29.0479H250.358V29.9999H237.842V29.0479ZM238.066 32.3939H250.162V33.3459H238.066V32.3939ZM242.308 26.0519H243.218V32.8559H242.308V26.0519ZM239.802 26.0519H240.754V32.8979H239.802V26.0519ZM244.842 26.0519H245.738V32.8979H244.842V26.0519ZM247.404 26.0519H248.37V32.8979H247.404V26.0519ZM241.93 34.2979L242.896 34.1999C243.078 35.0259 243.232 36.0899 243.246 36.7339L242.21 36.8879C242.21 36.2299 242.098 35.1379 241.93 34.2979ZM244.786 34.2979L245.766 34.1299C246.144 34.9279 246.522 36.0199 246.662 36.6779L245.626 36.9019C245.5 36.2299 245.15 35.1379 244.786 34.2979ZM247.642 34.2139L248.622 33.8779C249.322 34.7179 250.148 35.8939 250.526 36.6499L249.476 37.0279C249.14 36.2859 248.342 35.0819 247.642 34.2139ZM239.48 33.9339L240.488 34.1859C240.124 35.2359 239.48 36.3559 238.738 37.0279L237.744 36.6079C238.472 36.0199 239.13 34.9559 239.48 33.9339ZM254.012 24.1759H254.992V36.9859H254.012V24.1759ZM251.758 28.8239H257.288V29.8179H251.758V28.8239ZM253.858 29.3419L254.488 29.6219C253.998 31.5259 253.004 33.9479 252.066 35.2219C251.954 34.9139 251.702 34.4659 251.534 34.1859C252.43 33.1079 253.41 30.9799 253.858 29.3419ZM254.964 29.9999C255.356 30.4199 256.784 32.3239 257.106 32.7859L256.406 33.6259C256.056 32.8699 254.908 31.0359 254.446 30.4339L254.964 29.9999ZM251.856 25.2119L252.626 25.0159C253.018 25.9959 253.34 27.2699 253.438 28.1099L252.612 28.3339C252.542 27.4939 252.22 26.1919 251.856 25.2119ZM256.378 24.9599L257.302 25.1979C256.938 26.2619 256.504 27.5779 256.126 28.3619L255.454 28.1519C255.762 27.3119 256.182 25.9119 256.378 24.9599ZM261.81 24.1339H262.804V36.9999H261.81V24.1339ZM257.26 33.0379L264.456 31.7499L264.624 32.7159L257.428 34.0179L257.26 33.0379ZM258.31 25.8419L258.856 25.1279C259.668 25.6039 260.634 26.3179 261.096 26.8359L260.536 27.6479C260.088 27.1019 259.122 26.3459 258.31 25.8419ZM257.596 29.3699L258.086 28.6279C258.926 29.0619 259.962 29.7199 260.466 30.2239L259.934 31.0499C259.444 30.5459 258.436 29.8319 257.596 29.3699Z" fill="#F86608"/>
</svg>
