<svg width="200" height="60" viewBox="0 0 200 60" fill="none" xmlns="http://www.w3.org/2000/svg">
<path d="M23.6459 24.86H29.1199V25.854H23.6459V24.86ZM23.0439 28.878H29.6239V29.872H23.0439V28.878ZM25.0459 29.396L26.1799 29.62C25.7879 31.566 25.2139 34.03 24.7099 35.556L23.7579 35.332C24.2479 33.778 24.7799 31.216 25.0459 29.396ZM22.6939 35.164C24.2199 35.066 26.6279 34.898 28.9659 34.716V35.668C26.7819 35.878 24.4999 36.06 22.8759 36.2L22.6939 35.164ZM27.0619 32.182L27.9719 31.818C28.7559 33.204 29.4559 35.01 29.7359 36.228L28.7559 36.62C28.5179 35.416 27.8179 33.568 27.0619 32.182ZM16.9679 25.252H22.9599V26.19H16.9679V25.252ZM16.7719 33.246H23.1279V34.184H16.7719V33.246ZM19.4879 23.754H20.4819V27.618H19.4879V23.754ZM19.5719 27.604H20.3839V31.678H20.4679V36.62H19.4879V31.678H19.5719V27.604ZM18.1439 30.054V31.342H21.8679V30.054H18.1439ZM18.1439 28.038V29.298H21.8679V28.038H18.1439ZM17.3039 27.254H22.7499V32.126H17.3039V27.254ZM36.3439 31.916H39.1859V32.672H36.3439V31.916ZM35.5599 25.14H39.9699V25.966H35.5599V25.14ZM35.1539 28.206H43.6659V29.074H35.1539V28.206ZM36.5259 29.914H39.6619V34.716H36.5259V33.932H38.8079V30.698H36.5259V29.914ZM35.9099 29.914H36.7499V35.598H35.9099V29.914ZM37.2539 23.768H38.1779V25.728H37.2539V23.768ZM42.3919 29.788L43.2739 29.97C42.4899 32.924 41.0199 35.178 38.9619 36.62C38.8359 36.452 38.5139 36.088 38.3039 35.92C40.3479 34.646 41.7059 32.504 42.3919 29.788ZM35.9799 26.218L36.7079 26.05C36.9739 26.666 37.1559 27.478 37.1839 28.024L36.4139 28.206C36.3999 27.674 36.2179 26.848 35.9799 26.218ZM41.4679 24.65L42.1959 24.272C42.8119 24.958 43.4139 25.91 43.6799 26.554L42.9099 26.974C42.6579 26.33 42.0559 25.35 41.4679 24.65ZM38.6539 26.022L39.5079 26.218C39.2839 26.89 39.0599 27.674 38.8639 28.178L38.1639 28.01C38.3459 27.45 38.5699 26.596 38.6539 26.022ZM30.9119 24.356H35.5879V25.294H30.9119V24.356ZM32.0039 27.296H34.5239V28.178H32.0039V27.296ZM32.0039 30.18H34.5239V31.076H32.0039V30.18ZM31.5699 24.832H32.4519V33.792H31.5699V24.832ZM33.9919 24.818H34.9019V36.634H33.9919V24.818ZM30.6739 33.652C31.6399 33.484 33.0399 33.204 34.4679 32.91L34.5379 33.834C33.2219 34.114 31.9059 34.408 30.8559 34.632L30.6739 33.652ZM40.2919 23.768H41.2439C41.2439 30.012 41.6919 35.346 42.6019 35.388C42.8119 35.388 42.9799 34.604 43.0639 33.288C43.2319 33.498 43.6099 33.75 43.7779 33.834C43.5119 36.032 43.0079 36.606 42.5599 36.592C40.7259 36.564 40.4039 30.978 40.2919 23.768ZM51.3519 27.912H56.6439V28.878H51.3519V27.912ZM51.3659 31.3H56.6579V32.266H51.3659V31.3ZM51.3519 34.702H56.6579V35.668H51.3519V34.702ZM50.8339 24.566H57.1619V36.494H56.1119V25.574H51.8419V36.536H50.8339V24.566ZM44.9259 26.75H50.2179V27.758H44.9259V26.75ZM47.2079 23.74H48.2159V36.606H47.2079V23.74ZM47.1519 27.366L47.8519 27.604C47.3479 29.872 46.2699 32.602 45.1639 34.016C45.0519 33.722 44.7859 33.302 44.6039 33.064C45.6539 31.804 46.7179 29.396 47.1519 27.366ZM48.1179 28.906C48.5239 29.298 49.9659 30.978 50.3019 31.37L49.6439 32.238C49.2519 31.552 48.0759 29.984 47.5859 29.41L48.1179 28.906ZM67.1019 27.31L67.7599 26.624C69.0479 27.366 70.7419 28.472 71.6099 29.214L70.9099 30.012C70.0979 29.256 68.4039 28.108 67.1019 27.31ZM67.8439 29.564H68.3619V31.58C68.3619 32.378 68.8379 34.66 71.7639 35.738C71.5679 35.99 71.2739 36.396 71.1339 36.634C68.9779 35.794 68.0399 33.96 67.8299 33.12C67.6199 33.974 66.6259 35.738 64.1479 36.634C64.0359 36.41 63.7419 36.004 63.5459 35.794C66.8079 34.66 67.3119 32.392 67.3119 31.58V29.564H67.8439ZM67.3959 23.754H68.4319C68.2639 27.114 67.7319 29.06 64.5679 30.124C64.4699 29.872 64.2039 29.494 63.9799 29.284C66.8639 28.416 67.2699 26.736 67.3959 23.754ZM65.3239 24.678L66.2059 24.874C66.0659 25.798 65.6879 26.82 65.0299 27.394L64.2179 27.002C64.7919 26.512 65.1979 25.588 65.3239 24.678ZM65.1839 30.712L66.1079 30.894C65.9259 31.958 65.4779 33.05 64.7079 33.666L63.8679 33.162C64.5539 32.672 65.0019 31.706 65.1839 30.712ZM70.3219 24.608L71.3299 24.972C70.8819 25.756 70.3499 26.638 69.9299 27.212L69.1459 26.89C69.5519 26.288 70.0699 25.294 70.3219 24.608ZM70.4759 30.614L71.4979 30.978C71.0219 31.804 70.4479 32.784 69.9719 33.4L69.1739 33.064C69.6079 32.42 70.1679 31.356 70.4759 30.614ZM59.4019 27.982H63.5039V28.822H59.4019V27.982ZM59.4439 24.244H63.4479V25.084H59.4439V24.244ZM59.4019 29.858H63.5039V30.698H59.4019V29.858ZM58.7439 26.078H63.9659V26.946H58.7439V26.078ZM59.8639 31.748H63.5039V35.836H59.8639V34.954H62.5799V32.616H59.8639V31.748ZM59.3879 31.748H60.2979V36.48H59.3879V31.748ZM82.2919 29.074C82.2919 32.798 81.4799 34.716 78.2879 36.158L77.3499 35.262C79.8979 34.296 81.1579 33.092 81.1579 29.158V25.756C81.1579 25.21 81.1159 24.748 81.0879 24.622H82.3619C82.3479 24.762 82.2919 25.21 82.2919 25.756V29.074ZM77.2379 24.706C77.2239 24.832 77.1819 25.238 77.1819 25.714V30.852C77.1819 31.37 77.2239 31.986 77.2379 32.112H75.9919C76.0059 31.986 76.0619 31.384 76.0619 30.852V25.714C76.0619 25.42 76.0339 25.028 75.9919 24.706H77.2379ZM73.1499 27.422C73.2759 27.436 73.9619 27.52 74.5499 27.52H83.8179C84.4479 27.52 84.9099 27.464 85.1059 27.436V28.626C84.9519 28.612 84.4479 28.584 83.8319 28.584H74.5499C73.9339 28.584 73.3039 28.626 73.1499 28.626V27.422ZM87.6259 29.438C88.0599 29.48 88.7879 29.522 89.5859 29.522C90.6079 29.522 96.2219 29.522 97.2579 29.522C97.9579 29.522 98.4479 29.466 98.7699 29.438V30.81C98.4759 30.796 97.8879 30.754 97.2719 30.754C96.2079 30.754 90.6219 30.754 89.5859 30.754C88.8159 30.754 88.0739 30.782 87.6259 30.81V29.438ZM110.404 24.538C110.754 25.042 111.258 25.882 111.538 26.456L110.782 26.792C110.502 26.232 110.04 25.392 109.662 24.86L110.404 24.538ZM111.93 23.978C112.308 24.496 112.84 25.364 113.106 25.882L112.35 26.218C112.056 25.616 111.594 24.818 111.202 24.3L111.93 23.978ZM104.118 25C104.076 25.336 104.034 25.742 104.034 26.134C104.034 26.89 104.034 32.518 104.034 33.526C104.034 34.254 104.342 34.436 105.014 34.562C105.462 34.646 106.176 34.674 106.862 34.674C108.346 34.674 110.488 34.534 111.664 34.226V35.514C110.446 35.696 108.346 35.794 106.82 35.794C105.98 35.794 105.154 35.766 104.566 35.668C103.502 35.472 102.9 34.982 102.9 33.834C102.9 32.49 102.9 26.89 102.9 26.134C102.9 25.798 102.872 25.336 102.816 25H104.118ZM103.516 29.424C105.21 29.06 107.744 28.29 109.368 27.604C109.788 27.408 110.194 27.212 110.6 26.96L111.09 28.08C110.684 28.248 110.18 28.472 109.76 28.64C108.024 29.34 105.252 30.152 103.53 30.586L103.516 29.424ZM125.398 26.148C125.314 26.26 125.132 26.568 125.062 26.75C124.502 28.136 123.438 30.096 122.276 31.384C120.708 33.134 118.706 34.8 116.494 35.808L115.598 34.87C117.866 34.002 119.924 32.322 121.366 30.726C122.318 29.648 123.34 27.982 123.704 26.82C123.2 26.82 118.72 26.82 118.244 26.82C117.74 26.82 116.984 26.876 116.83 26.89V25.63C117.012 25.658 117.81 25.714 118.244 25.714C118.79 25.714 123.116 25.714 123.648 25.714C124.096 25.714 124.474 25.672 124.698 25.602L125.398 26.148ZM122.458 30.656C123.97 31.916 125.832 33.876 126.784 35.038L125.818 35.892C124.81 34.562 123.172 32.77 121.66 31.44L122.458 30.656ZM134.582 26.05C136.108 26.316 138.95 26.26 140.336 26.05V27.184C138.838 27.352 136.122 27.352 134.596 27.184L134.582 26.05ZM135.128 31.762C135.002 32.266 134.932 32.658 134.932 33.036C134.932 33.68 135.38 34.31 137.298 34.31C138.544 34.31 139.636 34.198 140.756 33.932L140.784 35.108C139.916 35.29 138.74 35.402 137.284 35.402C134.946 35.402 133.896 34.618 133.896 33.302C133.896 32.84 133.966 32.336 134.12 31.664L135.128 31.762ZM131.922 24.972C131.838 25.21 131.726 25.658 131.67 25.91C131.404 27.212 130.97 29.704 130.97 31.286C130.97 31.958 131.012 32.546 131.096 33.232C131.334 32.602 131.656 31.762 131.894 31.188L132.482 31.65C132.132 32.644 131.614 34.114 131.488 34.786C131.446 34.982 131.418 35.248 131.418 35.416C131.432 35.556 131.446 35.752 131.46 35.906L130.466 35.976C130.186 34.982 129.948 33.372 129.948 31.468C129.948 29.41 130.41 27.016 130.578 25.854C130.62 25.532 130.662 25.182 130.676 24.874L131.922 24.972ZM143.22 28.192C143.738 28.108 144.242 27.954 144.774 27.8C145.95 27.422 148.708 26.414 150.752 26.414C153.062 26.414 154.91 27.758 154.91 30.096C154.91 33.456 151.578 35.066 147.266 35.318L146.762 34.156C150.416 34.058 153.692 32.938 153.692 30.082C153.692 28.612 152.614 27.45 150.724 27.45C148.414 27.45 144.858 28.99 143.738 29.438L143.22 28.192ZM159.334 25.742C159.264 26.064 159.222 26.736 159.208 27.1C159.194 27.968 159.208 29.256 159.306 30.404C159.544 32.742 160.216 34.296 161.224 34.296C161.938 34.296 162.596 32.854 162.96 31.454L163.842 32.448C162.988 34.814 162.148 35.626 161.196 35.626C159.866 35.626 158.606 34.31 158.214 30.684C158.088 29.48 158.06 27.772 158.06 26.96C158.06 26.638 158.06 26.036 157.976 25.714L159.334 25.742ZM166.614 26.12C167.874 27.744 168.882 30.726 169.092 33.092L167.958 33.54C167.72 31.02 166.866 28.136 165.536 26.498L166.614 26.12ZM170.964 26.204C171.496 26.19 171.944 26.162 172.224 26.134C173.134 26.036 175.766 25.784 178.356 25.56C179.882 25.434 181.184 25.35 182.122 25.322L182.136 26.442C181.324 26.428 180.106 26.456 179.392 26.652C177.39 27.296 176.172 29.438 176.172 31.09C176.172 33.82 178.734 34.688 181.002 34.786L180.61 35.934C178.006 35.836 175.066 34.464 175.066 31.328C175.066 29.144 176.396 27.366 177.684 26.61C176.172 26.764 172.616 27.114 171.09 27.436L170.964 26.204Z" fill="black"/>
<rect x="0.5" y="0.5" width="199" height="59" rx="3.5" stroke="black"/>
</svg>
